<svg id="Layer_1" data-name="Layer 1" xmlns="http://www.w3.org/2000/svg" viewBox="0 0 1118.28 1971.01">
  <g>
    <ellipse class="cls-1" cx="559.48" cy="1002.8" rx="1.48" ry="1.55"/>
    <polyline class="cls-1" points="559.38 276.91 558.38 288.9 558.66 300.89 557.37 312.87 557.51 324.86 559.96 336.85 559.41 348.84 557.43 360.83 559 372.82 559.34 384.82 559.56 396.81 559.22 408.8 560.02 420.78 560.37 432.77 557.81 444.76 559.45 456.75 559.95 468.74 557.36 480.73 560.73 492.73 560.34 504.72 558.35 516.71 558.93 528.7 560.42 540.69 559.35 552.68 559.41 564.67 561.07 576.66 559.11 588.65 557.19 600.64 559.13 612.63 557.89 624.62 560.74 636.61 557.58 648.6 560.38 660.59 560.91 672.58 559.66 684.58 558.6 696.57 558.76 708.56 559.29 720.55 558.6 732.54 561.04 744.53 560.7 756.52 559.81 768.52 558.02 780.51 557.58 792.5 560.64 804.49 559.01 816.48 560.98 828.47 560.19 840.46 558.57 852.46 558.4 864.45 559.62 876.44 557.66 888.43 560.99 900.42 559.11 912.42 559.42 924.41 560.59 936.4 558.52 948.39 558.71 960.38 559.33 972.37 557.71 984.37 559.07 996.36 558.87 1008.35 559.92 1020.34 561 1032.34 557.98 1044.33 558.38 1056.32 557.64 1068.31 559.27 1080.3 559.98 1092.3 560.22 1104.29 557.34 1116.28 557.94 1128.27 558.29 1140.27 559.34 1152.26 557.22 1164.25 560.38 1176.25 557.9 1188.24 559.67 1200.23 558.24 1212.22 560.79 1224.22 560.17 1236.2 559.06 1248.19 560.15 1260.18 559.9 1272.17 559.86 1284.16 558.78 1296.15 560.34 1308.14 557.36 1320.13 559.78 1332.12 560.18 1344.11 557.49 1356.11 560.35 1368.1 558.04 1380.09 561.12 1392.08 560.34 1404.07 557.97 1416.06 557.23 1428.05 558.8 1440.04 559.47 1452.04 557.23 1464.03 558.47 1476.02 559.71 1488.02 558.39 1500.01 558.02 1512 557.57 1523.99 559.12 1535.99 558.08 1547.98 558.87 1559.98 558.36 1571.97 558.98 1583.96 558.91 1595.96 559.06 1607.95 560.35 1619.95 558.66 1631.94 558.28 1643.94 560.7 1655.93 559.83 1667.93 559.23 1679.92 560 1691.92 560.39 1703.91 557.57 1715.91 559.96 1727.91 557.56 1739.9 558.15 1751.9 560.18 1763.89 559.56 1775.88 559.37 1787.88 561.14 1799.87 560.27 1811.87 560.82 1823.86 558.16 1835.86 557.94 1847.86 558.66 1859.85 559.35 1871.85 560.66 1883.85 560.83 1895.85 557.5 1907.84 558.93 1919.84 559.64 1931.84 559.9 1943.84 559.74 1955.85 558.19 1967.85"/>
  </g>
  <polyline class="cls-1" points="2.1 26.55 13.9 27.56 25.7 27.28 37.51 28.56 49.31 28.42 61.12 25.97 72.92 26.53 84.73 28.51 96.53 26.93 108.33 26.59 120.14 26.38 131.95 26.71 143.75 25.92 155.57 25.56 167.38 28.12 179.28 27.32 191.08 29.37 201.25 35.92 213.27 38.67 222.71 46.23 229.73 56.06 237.28 65.16 244.32 74.95 247.52 86.55 250.09 98.19 252.6 110.08 250.64 121.62 248.71 133.15 250.66 144.68 249.42 156.22 252.27 167.75 249.11 179.29 251.91 190.83 253.38 202.99 255.04 215.24 258.83 227.17 265.54 237.78 274.06 246.93 283.12 255.58 294.93 259.98 306.07 264.97 317.83 268.7 330.16 271.44 342.22 271.89 354.26 268.82 366.31 270.46 378.36 268.49 390.41 269.27 402.47 270.9 414.52 271.07 426.57 269.85 438.62 271.8 450.68 268.47 462.73 270.36 474.79 270.05 486.84 268.87 498.89 270.95 510.95 270.75 523 270.13 535.06 271.75 547.12 270.39 559.18 270.59"/>
  <polyline class="cls-1" points="1116.18 26.95 1104.38 25.95 1092.58 26.23 1080.77 24.94 1068.97 25.08 1057.16 27.53 1045.36 26.98 1033.55 25 1021.75 26.57 1009.95 26.91 998.14 27.13 986.33 26.79 974.53 27.59 962.71 27.94 950.9 25.38 939.08 27.86 927.63 30.84 915.52 32.61 906.68 41.27 897.08 47.98 887.29 54.97 880.58 64.89 876.2 75.97 871.08 86.65 868.63 98.25 869.45 110.08 867.49 121.62 865.57 133.15 867.52 144.68 866.27 156.22 869.13 167.75 865.96 179.29 868.76 190.83 868.31 203.53 864.16 215.54 858.4 226.64 852.06 237.28 844.38 247.09 834.48 254.64 825.04 263.29 813.14 267.86 800.65 269.93 788.12 269.12 776.06 268.68 764.02 271.74 751.97 270.11 739.92 272.08 727.87 271.29 715.81 269.67 703.76 269.5 691.71 270.72 679.66 268.76 667.6 272.09 655.55 270.21 643.49 270.52 631.44 271.69 619.39 269.62 607.33 269.81 595.28 270.43 583.22 268.81 571.16 270.17 559.1 269.97"/>
</svg>