<svg id="Isolation_Mode" data-name="Isolation Mode" xmlns="http://www.w3.org/2000/svg" viewBox="0 0 693.08 2238.07">
  <polyline class="cls-1" points="665.43 1269.06 660.58 1287.03 654.9 1304.5 642.9 1318.44 630.02 1332.28 611.65 1336.71 593.52 1343.3 575.22 1338.99 556.93 1339.04 538.63 1342.26 520.33 1339.01 502.04 1339.7 483.74 1339.62 465.44 1339.32 447.14 1341.45 428.85 1338.86 410.55 1340.31 392.25 1339.39 373.95 1340.36 355.65 1342.64 337.35 1342.16 319.06 1343.2 300.76 1338.7 282.46 1342.84 264.16 1343.4 245.86 1340.74 227.56 1341.69 209.26 1339.51 190.96 1342.95 172.66 1338.69 154.36 1342.03 136.06 1340.9 117.75 1341.23 99.44 1340.86 80.36 1341.55 63.16 1349.92 49.45 1362.77 38.52 1377.59 31.1 1394.45 27.95 1412.76 28.97 1430.08 27.97 1447.39 26.77 1464.7 29.23 1482.01 29.5 1499.33 28.88 1516.65 25.75 1533.97 28.4 1551.29 31.6 1569.47 38.26 1586.61 50.1 1600.63 63.11 1614.22 80.38 1622.43 99.44 1621.55 117.74 1624.06 136.03 1624.93 154.33 1621.11 172.63 1622.42 190.92 1623.05 209.22 1620.74 227.52 1620.85 245.82 1620.85 264.12 1623.57 282.41 1622.12 300.71 1621.5 319.01 1625.12 337.31 1621.36 355.61 1625.46 373.91 1624.95 392.2 1622.66 410.5 1620.99 428.8 1623.01 447.1 1621.71 465.4 1624.05 483.7 1621.4 502 1623.41 520.3 1622.29 538.6 1622.74 556.91 1623.35 575.21 1625.54 593.52 1624.45 612.29 1624.94 630.48 1630.97 645.7 1642.81 656.45 1658.65 664.41 1675.99 665.53 1694.99 664.07 1713.76 667.35 1732.53 667.75 1751.3 664.76 1770.08 665.31 1788.86 664.92 1807.64 665.08 1826.42 663.4 1845.14 657.5 1863.36 645.65 1878.54 630.51 1890.48 611.5 1893.5 593.52 1896.47 575.47 1898.7 557.41 1899.83 539.36 1896.26 521.3 1895.86 503.25 1900.38 485.19 1897.52 467.13 1899.26 449.08 1898.19 431.02 1898.57 412.96 1900.1 394.9 1899.38 376.83 1896.65 362.68 1903.66 352.01 1913.84 345.37 1928.17 346.78 1946.37 348.6 1964.57 345.95 1982.77 348.06 2000.97 346.58 2019.17 348.82 2037.36 345.17 2055.56 344.68 2073.76 347.27 2091.96 347.5 2110.16 345.98 2128.36 346.54 2146.56 348.5 2164.76 347.21 2182.97 347.76 2201.17 347.81 2219.38 347.46 2237.59"/>
  <polyline class="cls-1" points="342.83 1.82 344.13 19.65 347.34 37.48 345.89 55.3 343.33 73.13 343.85 90.96 345.03 108.79 347.09 126.62 344.45 144.44 346.41 162.27 343.96 180.1 343.2 197.93 345.92 215.76 345.9 233.59 343.27 251.42 344.04 269.25 344.72 287.07 342.87 304.9 345.91 322.73 346.47 340.56 343.31 358.39 342.84 376.22 346.05 394.05 347.09 411.88 344.31 429.72 344.18 447.55 345.36 465.39 346.38 483.23 349.02 501.39 356.64 517.96 365.48 534.55 382.07 543.39 398.47 551.62 416.8 555.01 434.47 553.01 452.14 555.47 469.81 555.28 487.48 554.78 505.15 557.22 522.82 553.21 540.49 556.4 558.17 553.08 575.84 554.72 593.52 555.81 612.38 556.55 629.48 564.64 643.34 577.11 654.07 591.98 664.41 607.94 664.85 626.93 667.68 644.21 664.2 661.5 665.75 678.79 665.8 696.09 663.49 713.38 664.57 732.42 655.48 749.15 643.69 763.55 629.93 776.44 611.8 781.61 593.52 783.13 575.22 786.3 556.93 786.81 538.63 782.92 520.33 785.01 502.04 787.05 483.74 784.69 465.44 786.81 447.14 787.1 428.85 786.72 410.55 787.47 392.25 784.29 373.95 786.59 355.65 783.57 337.35 786.04 319.06 785.03 300.76 783.54 282.46 783.19 264.16 786.56 245.86 784.34 227.56 784.26 209.26 782.96 190.96 783.35 172.66 787.45 154.36 785.96 136.06 783.88 117.75 784.03 99.44 786.87 80.85 787.7 63.01 793.98 49.09 806.73 35.65 820.25 30.65 838.65 29.43 857.08 27.11 874.39 26.95 891.71 25.24 909.02 28.55 926.33 27.89 943.65 27.72 960.96 26.32 978.28 29.84 995.6 30.23 1014.15 37.55 1031.34 48.64 1046.4 63.54 1057.79 80.56 1066.06 99.44 1068.51 117.74 1065.99 136.03 1066.93 154.33 1065.5 172.63 1069.57 190.92 1067.69 209.22 1065.98 227.52 1066.37 245.82 1069.58 264.12 1068.85 282.41 1066.61 300.71 1069.11 319.01 1069.69 337.31 1068.27 355.61 1069.21 373.91 1069.95 392.2 1068.24 410.5 1066.38 428.8 1065.83 447.1 1068.21 465.4 1067.81 483.7 1066.48 502 1068.88 520.3 1068.24 538.6 1068.14 556.91 1067.8 575.21 1068.07 593.52 1067.28 612.32 1069.13 629.3 1077.33 645.19 1087.63 657.66 1102.27 664.46 1120.3 664.54 1139.31 666.07 1157.02 667.74 1174.73 663.62 1192.44 664.23 1210.15 664.43 1227.86 663.14 1245.57 663.1 1263.29 663.75 1281.01"/>
</svg>